<svg id="visual" viewBox="0 0 900 675" xmlns="http://www.w3.org/2000/svg" xmlns:xlink="http://www.w3.org/1999/xlink" version="1.1"><rect x="0" y="0" fill="#000"></rect><defs><linearGradient id="grad1_0" x1="25%" y1="0%" x2="100%" y2="100%"><stop offset="23.333333333333336%" stop-color="#ffffff" stop-opacity="1"></stop><stop offset="76.66666666666666%" stop-color="#ffffff" stop-opacity="1"></stop></linearGradient></defs><defs><linearGradient id="grad1_1" x1="25%" y1="0%" x2="100%" y2="100%"><stop offset="23.333333333333336%" stop-color="#ffffff" stop-opacity="1"></stop><stop offset="76.66666666666666%" stop-color="#c6c6c6" stop-opacity="1"></stop></linearGradient></defs><defs><linearGradient id="grad1_2" x1="25%" y1="0%" x2="100%" y2="100%"><stop offset="23.333333333333336%" stop-color="#919191" stop-opacity="1"></stop><stop offset="76.66666666666666%" stop-color="#c6c6c6" stop-opacity="1"></stop></linearGradient></defs><defs><linearGradient id="grad1_3" x1="25%" y1="0%" x2="100%" y2="100%"><stop offset="23.333333333333336%" stop-color="#919191" stop-opacity="1"></stop><stop offset="76.66666666666666%" stop-color="#5e5e5e" stop-opacity="1"></stop></linearGradient></defs><defs><linearGradient id="grad1_4" x1="25%" y1="0%" x2="100%" y2="100%"><stop offset="23.333333333333336%" stop-color="#303030" stop-opacity="1"></stop><stop offset="76.66666666666666%" stop-color="#5e5e5e" stop-opacity="1"></stop></linearGradient></defs><defs><linearGradient id="grad1_5" x1="25%" y1="0%" x2="100%" y2="100%"><stop offset="23.333333333333336%" stop-color="#303030" stop-opacity="1"></stop><stop offset="76.66666666666666%" stop-color="#000000" stop-opacity="1"></stop></linearGradient></defs><defs><linearGradient id="grad2_0" x1="0%" y1="0%" x2="75%" y2="100%"><stop offset="23.333333333333336%" stop-color="#ffffff" stop-opacity="1"></stop><stop offset="76.66666666666666%" stop-color="#ffffff" stop-opacity="1"></stop></linearGradient></defs><defs><linearGradient id="grad2_1" x1="0%" y1="0%" x2="75%" y2="100%"><stop offset="23.333333333333336%" stop-color="#c6c6c6" stop-opacity="1"></stop><stop offset="76.66666666666666%" stop-color="#ffffff" stop-opacity="1"></stop></linearGradient></defs><defs><linearGradient id="grad2_2" x1="0%" y1="0%" x2="75%" y2="100%"><stop offset="23.333333333333336%" stop-color="#c6c6c6" stop-opacity="1"></stop><stop offset="76.66666666666666%" stop-color="#919191" stop-opacity="1"></stop></linearGradient></defs><defs><linearGradient id="grad2_3" x1="0%" y1="0%" x2="75%" y2="100%"><stop offset="23.333333333333336%" stop-color="#5e5e5e" stop-opacity="1"></stop><stop offset="76.66666666666666%" stop-color="#919191" stop-opacity="1"></stop></linearGradient></defs><defs><linearGradient id="grad2_4" x1="0%" y1="0%" x2="75%" y2="100%"><stop offset="23.333333333333336%" stop-color="#5e5e5e" stop-opacity="1"></stop><stop offset="76.66666666666666%" stop-color="#303030" stop-opacity="1"></stop></linearGradient></defs><defs><linearGradient id="grad2_5" x1="0%" y1="0%" x2="75%" y2="100%"><stop offset="23.333333333333336%" stop-color="#000000" stop-opacity="1"></stop><stop offset="76.66666666666666%" stop-color="#303030" stop-opacity="1"></stop></linearGradient></defs><g transform="translate(900, 0)"><path d="M0 393.8C-36.9 355.2 -73.9 316.7 -125.9 304C-177.9 291.2 -245 304.3 -278.4 278.4C-311.8 252.5 -311.6 187.6 -325.2 134.7C-338.8 81.8 -366.3 40.9 -393.7 0L0 0Z" fill="#1b1b1b"></path><path d="M0 328.1C-30.8 296 -61.6 263.9 -104.9 253.3C-148.3 242.7 -204.2 253.6 -232 232C-259.9 210.4 -259.7 156.3 -271 112.3C-282.3 68.2 -305.2 34.1 -328.1 0L0 0Z" fill="#474747"></path><path d="M0 262.5C-24.6 236.8 -49.3 211.1 -83.9 202.6C-118.6 194.2 -163.3 202.9 -185.6 185.6C-207.9 168.3 -207.7 125.1 -216.8 89.8C-225.9 54.5 -244.2 27.3 -262.5 0L0 0Z" fill="#777777"></path><path d="M0 196.9C-18.5 177.6 -36.9 158.3 -63 152C-89 145.6 -122.5 152.2 -139.2 139.2C-155.9 126.3 -155.8 93.8 -162.6 67.4C-169.4 40.9 -183.1 20.5 -196.9 0L0 0Z" fill="#ababab"></path><path d="M0 131.3C-12.3 118.4 -24.6 105.6 -42 101.3C-59.3 97.1 -81.7 101.4 -92.8 92.8C-103.9 84.2 -103.9 62.5 -108.4 44.9C-112.9 27.3 -122.1 13.6 -131.2 0L0 0Z" fill="#e2e2e2"></path><path d="M0 65.6C-6.2 59.2 -12.3 52.8 -21 50.7C-29.7 48.5 -40.8 50.7 -46.4 46.4C-52 42.1 -51.9 31.3 -54.2 22.5C-56.5 13.6 -61 6.8 -65.6 0L0 0Z" fill="#ffffff"></path></g><g transform="translate(0, 675)"><path d="M0 -393.7C48.6 -382.2 97.2 -370.6 146.6 -353.8C196 -337.1 246.2 -315.2 278.4 -278.4C310.6 -241.7 324.7 -190.1 340.9 -141.2C357.1 -92.3 375.4 -46.2 393.8 0L0 0Z" fill="#1b1b1b"></path><path d="M0 -328.1C40.5 -318.5 81 -308.8 122.1 -294.9C163.3 -280.9 205.2 -262.6 232 -232C258.8 -201.4 270.6 -158.4 284.1 -117.7C297.6 -76.9 312.9 -38.5 328.1 0L0 0Z" fill="#474747"></path><path d="M0 -262.5C32.4 -254.8 64.8 -247.1 97.7 -235.9C130.7 -224.7 164.2 -210.1 185.6 -185.6C207.1 -161.1 216.5 -126.7 227.3 -94.1C238.1 -61.6 250.3 -30.8 262.5 0L0 0Z" fill="#777777"></path><path d="M0 -196.9C24.3 -191.1 48.6 -185.3 73.3 -176.9C98 -168.5 123.1 -157.6 139.2 -139.2C155.3 -120.8 162.4 -95 170.5 -70.6C178.6 -46.2 187.7 -23.1 196.9 0L0 0Z" fill="#ababab"></path><path d="M0 -131.2C16.2 -127.4 32.4 -123.5 48.9 -117.9C65.3 -112.4 82.1 -105.1 92.8 -92.8C103.5 -80.6 108.2 -63.4 113.6 -47.1C119 -30.8 125.1 -15.4 131.3 0L0 0Z" fill="#e2e2e2"></path><path d="M0 -65.6C8.1 -63.7 16.2 -61.8 24.4 -59C32.7 -56.2 41 -52.5 46.4 -46.4C51.8 -40.3 54.1 -31.7 56.8 -23.5C59.5 -15.4 62.6 -7.7 65.6 0L0 0Z" fill="#ffffff"></path></g></svg>