<svg id="visual" viewBox="0 0 900 600" width="900" height="600" xmlns="http://www.w3.org/2000/svg" xmlns:xlink="http://www.w3.org/1999/xlink" version="1.1"><rect x="0" y="0" width="900" height="600" fill="#ffffff"></rect><defs><linearGradient id="grad1_0" x1="33.3%" y1="0%" x2="100%" y2="100%"><stop offset="20%" stop-color="#001122" stop-opacity="1"></stop><stop offset="80%" stop-color="#001122" stop-opacity="1"></stop></linearGradient></defs><defs><linearGradient id="grad1_1" x1="33.3%" y1="0%" x2="100%" y2="100%"><stop offset="20%" stop-color="#001122" stop-opacity="1"></stop><stop offset="80%" stop-color="#2f3948" stop-opacity="1"></stop></linearGradient></defs><defs><linearGradient id="grad1_2" x1="33.3%" y1="0%" x2="100%" y2="100%"><stop offset="20%" stop-color="#5e6672" stop-opacity="1"></stop><stop offset="80%" stop-color="#2f3948" stop-opacity="1"></stop></linearGradient></defs><defs><linearGradient id="grad1_3" x1="33.3%" y1="0%" x2="100%" y2="100%"><stop offset="20%" stop-color="#5e6672" stop-opacity="1"></stop><stop offset="80%" stop-color="#91969f" stop-opacity="1"></stop></linearGradient></defs><defs><linearGradient id="grad1_4" x1="33.3%" y1="0%" x2="100%" y2="100%"><stop offset="20%" stop-color="#c7c9ce" stop-opacity="1"></stop><stop offset="80%" stop-color="#91969f" stop-opacity="1"></stop></linearGradient></defs><defs><linearGradient id="grad1_5" x1="33.3%" y1="0%" x2="100%" y2="100%"><stop offset="20%" stop-color="#c7c9ce" stop-opacity="1"></stop><stop offset="80%" stop-color="#ffffff" stop-opacity="1"></stop></linearGradient></defs><defs><linearGradient id="grad2_0" x1="0%" y1="0%" x2="66.7%" y2="100%"><stop offset="20%" stop-color="#001122" stop-opacity="1"></stop><stop offset="80%" stop-color="#001122" stop-opacity="1"></stop></linearGradient></defs><defs><linearGradient id="grad2_1" x1="0%" y1="0%" x2="66.7%" y2="100%"><stop offset="20%" stop-color="#2f3948" stop-opacity="1"></stop><stop offset="80%" stop-color="#001122" stop-opacity="1"></stop></linearGradient></defs><defs><linearGradient id="grad2_2" x1="0%" y1="0%" x2="66.7%" y2="100%"><stop offset="20%" stop-color="#2f3948" stop-opacity="1"></stop><stop offset="80%" stop-color="#5e6672" stop-opacity="1"></stop></linearGradient></defs><defs><linearGradient id="grad2_3" x1="0%" y1="0%" x2="66.7%" y2="100%"><stop offset="20%" stop-color="#91969f" stop-opacity="1"></stop><stop offset="80%" stop-color="#5e6672" stop-opacity="1"></stop></linearGradient></defs><defs><linearGradient id="grad2_4" x1="0%" y1="0%" x2="66.7%" y2="100%"><stop offset="20%" stop-color="#91969f" stop-opacity="1"></stop><stop offset="80%" stop-color="#c7c9ce" stop-opacity="1"></stop></linearGradient></defs><defs><linearGradient id="grad2_5" x1="0%" y1="0%" x2="66.7%" y2="100%"><stop offset="20%" stop-color="#ffffff" stop-opacity="1"></stop><stop offset="80%" stop-color="#c7c9ce" stop-opacity="1"></stop></linearGradient></defs><g transform="translate(900, 0)"><path d="M0 378.6C-50.8 375.4 -101.7 372.2 -144.9 349.8C-188.1 327.3 -223.7 285.7 -244 244C-264.3 202.2 -269.3 160.4 -289.2 119.8C-309.1 79.1 -343.8 39.6 -378.6 0L0 0Z" fill="#e2e4e6"></path><path d="M0 315.5C-42.4 312.8 -84.7 310.2 -120.7 291.5C-156.7 272.8 -186.4 238.1 -203.3 203.3C-220.2 168.5 -224.4 133.7 -241 99.8C-257.6 65.9 -286.5 33 -315.5 0L0 0Z" fill="#abafb6"></path><path d="M0 252.4C-33.9 250.3 -67.8 248.1 -96.6 233.2C-125.4 218.2 -149.1 190.4 -162.6 162.6C-176.2 134.8 -179.5 107 -192.8 79.9C-206 52.7 -229.2 26.4 -252.4 0L0 0Z" fill="#777d88"></path><path d="M0 189.3C-25.4 187.7 -50.8 186.1 -72.4 174.9C-94 163.7 -111.8 142.8 -122 122C-132.1 101.1 -134.6 80.2 -144.6 59.9C-154.5 39.6 -171.9 19.8 -189.3 0L0 0Z" fill="#464f5d"></path><path d="M0 126.2C-16.9 125.1 -33.9 124.1 -48.3 116.6C-62.7 109.1 -74.6 95.2 -81.3 81.3C-88.1 67.4 -89.8 53.5 -96.4 39.9C-103 26.4 -114.6 13.2 -126.2 0L0 0Z" fill="#182535"></path><path d="M0 63.1C-8.5 62.6 -16.9 62 -24.1 58.3C-31.3 54.6 -37.3 47.6 -40.7 40.7C-44 33.7 -44.9 26.7 -48.2 20C-51.5 13.2 -57.3 6.6 -63.1 0L0 0Z" fill="#001122"></path></g><g transform="translate(0, 600)"><path d="M0 -378.6C55.4 -379.8 110.8 -381 144.9 -349.8C178.9 -318.6 191.6 -255 214.3 -214.3C236.9 -173.5 269.4 -155.5 298.4 -123.6C327.5 -91.7 353 -45.8 378.6 0L0 0Z" fill="#e2e4e6"></path><path d="M0 -315.5C46.2 -316.5 92.3 -317.5 120.7 -291.5C149.1 -265.5 159.7 -212.5 178.5 -178.5C197.4 -144.6 224.5 -129.6 248.7 -103C272.9 -76.4 294.2 -38.2 315.5 0L0 0Z" fill="#abafb6"></path><path d="M0 -252.4C36.9 -253.2 73.9 -254 96.6 -233.2C119.3 -212.4 127.8 -170 142.8 -142.8C157.9 -115.7 179.6 -103.7 198.9 -82.4C218.3 -61.1 235.3 -30.6 252.4 0L0 0Z" fill="#777d88"></path><path d="M0 -189.3C27.7 -189.9 55.4 -190.5 72.4 -174.9C89.5 -159.3 95.8 -127.5 107.1 -107.1C118.4 -86.7 134.7 -77.8 149.2 -61.8C163.7 -45.8 176.5 -22.9 189.3 0L0 0Z" fill="#464f5d"></path><path d="M0 -126.2C18.5 -126.6 36.9 -127 48.3 -116.6C59.6 -106.2 63.9 -85 71.4 -71.4C79 -57.8 89.8 -51.8 99.5 -41.2C109.2 -30.6 117.7 -15.3 126.2 0L0 0Z" fill="#182535"></path><path d="M0 -63.1C9.2 -63.3 18.5 -63.5 24.1 -58.3C29.8 -53.1 31.9 -42.5 35.7 -35.7C39.5 -28.9 44.9 -25.9 49.7 -20.6C54.6 -15.3 58.8 -7.6 63.1 0L0 0Z" fill="#001122"></path></g></svg>